<mxfile host="Electron" agent="Mozilla/5.0 (Windows NT 10.0; Win64; x64) AppleWebKit/537.36 (KHTML, like Gecko) draw.io/28.0.6 Chrome/138.0.7204.100 Electron/37.2.3 Safari/537.36" version="28.0.6">
  <diagram name="第 1 页" id="9_nOzC6Pcesng4Vaw9cs">
    <mxGraphModel dx="1213" dy="828" grid="1" gridSize="10" guides="1" tooltips="1" connect="1" arrows="1" fold="1" page="1" pageScale="1" pageWidth="827" pageHeight="1169" math="0" shadow="0">
      <root>
        <mxCell id="0" />
        <mxCell id="1" parent="0" />
        <mxCell id="zRLv_VgMllRFjd1obKRN-4" value="" style="edgeStyle=orthogonalEdgeStyle;rounded=0;orthogonalLoop=1;jettySize=auto;html=1;" edge="1" parent="1" source="zRLv_VgMllRFjd1obKRN-1" target="zRLv_VgMllRFjd1obKRN-3">
          <mxGeometry relative="1" as="geometry" />
        </mxCell>
        <mxCell id="zRLv_VgMllRFjd1obKRN-1" value="" style="rounded=0;whiteSpace=wrap;html=1;" vertex="1" parent="1">
          <mxGeometry x="60" y="270" width="120" height="210" as="geometry" />
        </mxCell>
        <mxCell id="zRLv_VgMllRFjd1obKRN-2" value="Actor" style="shape=umlActor;verticalLabelPosition=bottom;verticalAlign=top;html=1;outlineConnect=0;" vertex="1" parent="1">
          <mxGeometry x="80" y="290" width="75" height="150" as="geometry" />
        </mxCell>
        <mxCell id="zRLv_VgMllRFjd1obKRN-6" value="" style="edgeStyle=orthogonalEdgeStyle;rounded=0;orthogonalLoop=1;jettySize=auto;html=1;" edge="1" parent="1" source="zRLv_VgMllRFjd1obKRN-3" target="zRLv_VgMllRFjd1obKRN-5">
          <mxGeometry relative="1" as="geometry" />
        </mxCell>
        <mxCell id="zRLv_VgMllRFjd1obKRN-3" value="请求排名" style="whiteSpace=wrap;html=1;rounded=0;fontSize=20;" vertex="1" parent="1">
          <mxGeometry x="210" y="345" width="120" height="60" as="geometry" />
        </mxCell>
        <mxCell id="zRLv_VgMllRFjd1obKRN-8" value="" style="edgeStyle=orthogonalEdgeStyle;rounded=0;orthogonalLoop=1;jettySize=auto;html=1;" edge="1" parent="1" source="zRLv_VgMllRFjd1obKRN-5" target="zRLv_VgMllRFjd1obKRN-7">
          <mxGeometry relative="1" as="geometry" />
        </mxCell>
        <mxCell id="zRLv_VgMllRFjd1obKRN-11" value="" style="edgeStyle=orthogonalEdgeStyle;rounded=0;orthogonalLoop=1;jettySize=auto;html=1;" edge="1" parent="1" source="zRLv_VgMllRFjd1obKRN-5" target="zRLv_VgMllRFjd1obKRN-10">
          <mxGeometry relative="1" as="geometry" />
        </mxCell>
        <mxCell id="zRLv_VgMllRFjd1obKRN-5" value="存在至少&lt;div&gt;一个学生&lt;/div&gt;" style="rhombus;whiteSpace=wrap;html=1;fontSize=20;rounded=0;" vertex="1" parent="1">
          <mxGeometry x="370" y="299.38" width="151.25" height="151.25" as="geometry" />
        </mxCell>
        <mxCell id="zRLv_VgMllRFjd1obKRN-7" value="提示无学生" style="whiteSpace=wrap;html=1;fontSize=20;rounded=0;" vertex="1" parent="1">
          <mxGeometry x="385.625" y="524.995" width="120" height="60" as="geometry" />
        </mxCell>
        <mxCell id="zRLv_VgMllRFjd1obKRN-9" value="no" style="text;html=1;align=center;verticalAlign=middle;resizable=0;points=[];autosize=1;strokeColor=none;fillColor=none;" vertex="1" parent="1">
          <mxGeometry x="400" y="470" width="40" height="30" as="geometry" />
        </mxCell>
        <mxCell id="zRLv_VgMllRFjd1obKRN-15" value="" style="edgeStyle=orthogonalEdgeStyle;rounded=0;orthogonalLoop=1;jettySize=auto;html=1;" edge="1" parent="1" source="zRLv_VgMllRFjd1obKRN-10" target="zRLv_VgMllRFjd1obKRN-14">
          <mxGeometry relative="1" as="geometry" />
        </mxCell>
        <mxCell id="zRLv_VgMllRFjd1obKRN-10" value="所有学生按自定义函数排序" style="whiteSpace=wrap;html=1;fontSize=20;rounded=0;" vertex="1" parent="1">
          <mxGeometry x="560" y="337.51" width="143.13" height="75" as="geometry" />
        </mxCell>
        <mxCell id="zRLv_VgMllRFjd1obKRN-14" value="输出排名结果" style="whiteSpace=wrap;html=1;fontSize=20;rounded=0;" vertex="1" parent="1">
          <mxGeometry x="739.9999999999999" y="337.51" width="143.13" height="75" as="geometry" />
        </mxCell>
      </root>
    </mxGraphModel>
  </diagram>
</mxfile>
